<?xml version="1.0" standalone="no"?>
<!DOCTYPE svg PUBLIC "-//W3C//DTD SVG 20010904//EN"
 "http://www.w3.org/TR/2001/REC-SVG-20010904/DTD/svg10.dtd">
<svg version="1.0" xmlns="http://www.w3.org/2000/svg"
 width="1280.000000pt" height="1280.000000pt" viewBox="0 0 1280.000000 1280.000000"
 preserveAspectRatio="xMidYMid meet">
<g transform="translate(0.000000,1280.000000) scale(0.100000,-0.100000)"
fill="#000000" stroke="none">
<path d="M10565 11471 c-105 -61 -186 -173 -311 -429 -75 -154 -165 -327 -324
-627 -26 -49 -137 -259 -245 -465 -108 -206 -221 -420 -250 -475 -29 -55 -123
-235 -210 -400 -146 -277 -183 -349 -315 -600 -26 -49 -78 -148 -115 -220 -91
-174 -161 -309 -226 -432 -35 -68 -59 -103 -70 -103 -20 0 -92 117 -379 615
-111 193 -211 360 -222 373 -12 12 -30 22 -41 22 -11 0 -171 -25 -356 -55
-185 -31 -379 -62 -431 -70 -52 -9 -122 -20 -155 -25 -140 -22 -258 -41 -385
-60 -74 -11 -162 -25 -195 -30 -132 -22 -349 -52 -775 -110 -328 -44 -335 -45
-640 -79 -189 -22 -285 -32 -500 -52 -268 -24 -402 -36 -570 -49 -69 -6 -177
-14 -240 -19 -151 -13 -338 -27 -595 -46 -115 -9 -271 -20 -345 -26 -180 -13
-565 -39 -884 -59 -158 -9 -186 -19 -186 -65 0 -28 13 -48 390 -620 177 -269
325 -497 327 -506 6 -20 -15 -28 -192 -69 -221 -51 -319 -69 -655 -120 -74
-11 -166 -25 -205 -31 -38 -6 -97 -14 -130 -19 -33 -4 -109 -15 -170 -24 -60
-9 -186 -28 -280 -42 -233 -34 -382 -64 -433 -85 -53 -23 -70 -59 -49 -104 8
-16 104 -131 213 -255 887 -1010 1240 -1424 1653 -1940 479 -597 998 -1328
1719 -2420 544 -823 508 -776 581 -774 44 2 4 -11 726 227 851 281 952 314
1380 447 240 75 299 92 605 180 630 180 1175 291 2625 535 542 91 555 95 555
165 0 35 -9 50 -70 121 -39 44 -70 84 -70 89 0 18 30 29 100 39 41 5 235 32
430 60 195 28 388 55 428 61 39 5 105 15 145 20 39 6 194 26 342 45 149 19
305 39 348 45 128 17 223 29 402 51 185 23 215 33 215 78 0 24 -35 60 -247
252 -796 719 -1239 1137 -1718 1620 -578 583 -807 838 -1081 1204 -223 298
-484 679 -484 707 0 17 176 357 525 1013 51 95 302 573 387 735 34 63 82 156
108 205 77 146 356 679 432 825 39 74 85 162 103 195 18 33 76 146 130 250 54
105 101 195 105 200 4 6 34 62 66 125 32 63 75 143 96 177 57 94 143 270 168
343 12 36 24 97 27 137 5 60 2 79 -17 117 -59 124 -295 256 -454 256 -49 0
-71 -6 -111 -29z m204 -92 c96 -22 210 -93 258 -162 22 -32 25 -44 20 -90 -7
-69 -29 -132 -87 -248 -65 -131 -98 -186 -117 -193 -38 -15 -234 24 -306 59
-111 56 -217 145 -217 181 0 48 134 289 217 390 57 70 124 88 232 63z m-399
-610 c44 -33 82 -64 85 -69 3 -5 -72 -157 -166 -337 -227 -435 -283 -541 -339
-648 -88 -167 -167 -319 -345 -660 -215 -411 -430 -824 -565 -1080 -26 -49
-80 -153 -120 -230 -40 -77 -94 -180 -120 -230 -26 -49 -77 -146 -113 -215
-35 -69 -113 -217 -172 -330 -59 -113 -133 -254 -165 -315 -32 -60 -110 -211
-175 -335 -65 -124 -139 -265 -165 -315 -26 -49 -89 -171 -140 -270 -113 -217
-138 -258 -153 -252 -7 2 -46 12 -87 22 -103 23 -100 22 -100 44 0 18 382 785
550 1106 31 61 98 189 148 285 134 261 480 928 597 1150 56 107 135 258 175
335 68 132 96 185 218 415 27 52 100 192 162 310 62 118 131 251 155 295 23
44 68 130 100 190 57 108 81 153 203 385 33 63 89 169 124 235 230 439 305
575 316 575 7 0 48 -27 92 -61z m268 -130 c45 -10 95 -19 110 -19 15 0 34 -5
42 -10 18 -11 8 -31 -317 -650 -84 -160 -135 -257 -393 -750 -117 -223 -234
-445 -260 -495 -26 -49 -96 -182 -155 -295 -59 -113 -127 -241 -150 -285 -24
-44 -127 -240 -230 -435 -103 -195 -205 -389 -227 -430 -22 -41 -57 -106 -78
-145 -21 -38 -58 -108 -82 -155 -105 -198 -370 -692 -486 -905 -303 -560 -403
-735 -419 -735 -19 0 -189 111 -197 129 -4 7 16 54 43 105 26 50 79 150 116
221 37 72 89 171 115 220 79 150 155 296 455 870 289 554 368 705 455 870 26
50 80 153 120 230 40 77 94 181 120 230 26 50 99 189 163 310 251 482 352 674
402 770 58 110 230 440 348 665 291 558 369 705 380 712 7 4 19 5 27 2 8 -3
52 -14 98 -25z m-2632 -2311 c92 -161 228 -393 301 -515 73 -122 133 -226 133
-231 0 -5 -42 -90 -93 -188 -103 -197 -243 -468 -452 -874 -218 -425 -471
-938 -509 -1033 -59 -146 -132 -467 -176 -762 -6 -44 -15 -107 -21 -141 -20
-132 -6 -184 50 -184 56 0 546 453 701 647 82 102 153 221 407 683 119 216
394 726 493 915 75 142 87 160 107 143 7 -6 57 -74 110 -152 450 -659 721
-979 1447 -1714 405 -410 1177 -1134 1784 -1674 81 -72 74 -80 -88 -100 -74
-9 -173 -21 -220 -27 -47 -7 -121 -16 -165 -22 -116 -14 -209 -26 -300 -39
-205 -27 -537 -72 -600 -80 -74 -10 -373 -52 -665 -95 -96 -14 -181 -27 -188
-30 -7 -2 -24 0 -39 6 -21 8 -35 6 -67 -10 -26 -12 -148 -36 -336 -66 -162
-26 -313 -51 -335 -55 -22 -5 -65 -13 -95 -18 -30 -6 -82 -15 -115 -21 -97
-18 -403 -81 -490 -101 -342 -80 -676 -164 -935 -234 -69 -18 -179 -48 -244
-65 -66 -18 -275 -77 -465 -132 -190 -55 -359 -104 -376 -109 -56 -15 -329
-98 -500 -151 -93 -29 -184 -54 -201 -57 -30 -4 -34 2 -446 605 -442 647 -883
1293 -1036 1520 -51 76 -184 271 -294 433 -441 649 -1377 2055 -2177 3272 -90
137 -161 254 -158 262 4 10 36 15 119 20 62 4 172 11 243 16 72 5 202 14 290
20 189 12 378 26 565 40 74 6 254 19 400 30 260 20 396 31 615 50 302 26 358
30 455 40 58 5 155 15 215 20 149 14 344 36 618 70 42 6 112 14 155 20 42 5
111 14 152 19 85 11 685 98 770 111 30 5 89 14 130 20 104 15 311 47 460 71
411 65 370 59 660 109 91 15 181 29 202 29 l36 1 168 -292z m-5385 -1920 c385
-582 1190 -1784 1492 -2228 162 -239 338 -497 389 -573 241 -356 1231 -1804
1254 -1834 44 -57 54 -57 235 -1 90 27 207 63 259 78 52 16 181 54 285 85 105
31 204 61 220 65 17 5 197 56 400 113 601 171 1134 308 1540 397 22 5 60 13
85 19 56 13 373 75 495 96 447 78 691 116 708 109 9 -3 37 -34 61 -68 24 -34
51 -68 60 -75 24 -20 20 -50 -6 -55 -38 -8 -298 -54 -373 -66 -113 -18 -163
-26 -390 -65 -251 -43 -499 -86 -552 -96 -29 -5 -77 -13 -105 -18 -512 -92
-997 -195 -1368 -292 -161 -43 -586 -163 -630 -179 -14 -5 -72 -23 -130 -40
-288 -87 -600 -187 -1320 -425 -769 -255 -832 -275 -852 -275 -23 0 -61 53
-258 355 -607 929 -1308 1945 -1654 2395 -27 36 -79 103 -115 150 -371 482
-1292 1569 -1938 2287 -46 51 -83 97 -83 102 0 5 6 13 12 19 13 10 209 45 463
81 337 49 428 63 483 71 74 12 158 25 267 40 126 19 353 58 430 75 39 9 90 20
115 25 25 5 97 22 160 38 68 17 121 26 131 21 9 -4 112 -153 230 -331z m4997
-1004 c78 -19 151 -55 237 -115 48 -34 75 -59 75 -71 0 -11 -26 -51 -57 -91
-69 -87 -352 -377 -367 -377 -20 0 -147 57 -163 72 -13 14 -13 25 2 99 46 240
106 471 128 497 11 14 50 11 145 -14z"/>
</g>
</svg>
