<?xml version="1.0" standalone="no"?>
<!DOCTYPE svg PUBLIC "-//W3C//DTD SVG 20010904//EN"
 "http://www.w3.org/TR/2001/REC-SVG-20010904/DTD/svg10.dtd">
<svg version="1.0" xmlns="http://www.w3.org/2000/svg"
 width="1280.000000pt" height="1034.000000pt" viewBox="0 0 1280.000000 1034.000000"
 preserveAspectRatio="xMidYMid meet">
<g transform="translate(0.000000,1034.000000) scale(0.100000,-0.100000)"
fill="#000000" stroke="none">
<path d="M1425 10328 c-11 -6 -22 -12 -24 -14 -2 -2 116 -137 261 -301 276
-312 2138 -2420 2363 -2676 71 -81 144 -156 161 -166 34 -20 71 -67 61 -77 -3
-4 -28 -1 -54 5 -26 6 -642 89 -1368 186 -726 96 -1390 184 -1475 195 -854
115 -1336 177 -1340 174 -13 -13 52 -103 118 -165 172 -161 491 -337 927 -511
195 -79 632 -224 748 -249 51 -11 245 -63 432 -115 187 -53 682 -189 1100
-304 418 -115 825 -227 905 -250 287 -82 523 -139 910 -220 107 -23 209 -46
225 -51 20 -7 74 -61 157 -157 182 -211 292 -326 948 -997 738 -755 998 -1030
1319 -1395 141 -160 235 -321 267 -456 28 -122 0 -176 -120 -232 -126 -59
-231 -135 -341 -246 -194 -194 -315 -426 -362 -690 -18 -106 -21 -310 -4 -407
31 -182 117 -389 242 -579 79 -120 263 -306 374 -379 164 -107 348 -184 515
-216 47 -8 110 -20 142 -26 141 -28 444 33 629 126 237 120 455 329 561 540
40 78 86 216 104 312 25 134 15 376 -20 502 -30 105 -84 227 -141 317 -104
162 -420 528 -926 1069 -657 705 -792 858 -1237 1408 -436 538 -577 751 -687
1035 -52 136 -61 194 -45 296 l13 86 102 99 c101 98 102 99 199 130 168 54
369 81 608 81 385 0 1381 -96 1983 -191 263 -42 321 -51 925 -149 443 -72 447
-73 755 -100 402 -37 574 -18 790 84 133 63 226 127 325 226 182 179 281 378
329 657 23 134 26 211 11 294 -5 30 -14 83 -20 119 -65 384 -321 712 -705 903
-210 104 -380 142 -630 141 -204 -1 -335 -20 -483 -69 -430 -144 -748 -517
-838 -983 -21 -105 -23 -317 -5 -418 11 -66 11 -75 -7 -110 -23 -44 -43 -65
-89 -88 -93 -47 -321 -74 -467 -56 -505 63 -1046 153 -1931 320 -752 142
-1077 198 -1394 241 -128 17 -247 37 -262 43 -32 14 -448 408 -494 470 -61 80
-390 374 -1185 1062 -815 704 -1130 969 -1425 1196 -492 378 -930 628 -1243
709 -122 31 -156 35 -187 17z m10247 -2643 c108 -17 162 -36 291 -102 360
-186 553 -517 533 -913 -21 -432 -280 -716 -748 -816 -201 -44 -602 5 -828
100 -358 151 -573 498 -530 854 29 236 119 428 283 599 143 149 340 260 521
293 70 13 360 4 478 -15z m-3066 -5355 c98 -24 257 -103 345 -170 80 -60 255
-241 343 -353 203 -261 278 -624 187 -897 -61 -179 -179 -328 -354 -444 -161
-107 -305 -155 -492 -163 -196 -8 -378 41 -570 154 -208 123 -461 456 -522
688 -28 109 -26 380 5 495 100 367 376 642 710 705 97 18 240 12 348 -15z"/>
</g>
</svg>
